<svg width="25" height="25" viewBox="0 0 25 25" fill="none" xmlns="http://www.w3.org/2000/svg">
<path d="M24.3118 20.9993L15.8125 12.5L24.3118 4.00072C25.2294 3.08311 25.2294 1.60582 24.3118 0.688208C23.3942 -0.229403 21.9169 -0.229403 20.9993 0.688208L12.5 9.18749L4.00072 0.688208C3.08311 -0.229403 1.60582 -0.229403 0.688208 0.688208C-0.229403 1.60582 -0.229403 3.08311 0.688208 4.00072L9.18749 12.5L0.688208 20.9993C-0.229403 21.9169 -0.229403 23.3942 0.688208 24.3118C1.60582 25.2294 3.08311 25.2294 4.00072 24.3118L12.5 15.8125L20.9993 24.3118C21.9169 25.2294 23.3942 25.2294 24.3118 24.3118C25.2229 23.3942 25.2229 21.9104 24.3118 20.9993Z" fill="url(#paint0_linear)"/>
<defs>
<linearGradient id="paint0_linear" x1="24.5" y1="0.499999" x2="1" y2="24.5" gradientUnits="userSpaceOnUse">
<stop stop-color="#FF0854"/>
<stop offset="1" stop-color="#FF6839"/>
</linearGradient>
</defs>
</svg>
