<svg width="30" height="25" viewBox="0 0 30 25" fill="none" xmlns="http://www.w3.org/2000/svg">
<path d="M0 8.325C0 10.3292 0.308333 13.4125 3.08333 16.1875C5.55 18.6542 13.7208 24.2042 14.0292 24.5125C14.3375 24.6667 14.6458 24.8208 14.9542 24.8208C15.2625 24.8208 15.5708 24.6667 15.8792 24.5125C16.1875 24.2042 24.3583 18.8083 26.825 16.1875C29.6 13.4125 29.9083 10.3292 29.9083 8.325C29.9083 3.7 26.2083 0 21.5833 0C19.1167 0 16.65 1.3875 15.1083 3.54583C13.5667 1.3875 11.1 0 8.325 0C3.85417 0 0 3.7 0 8.325Z" fill="url(#paint0_linear)"/>
<defs>
<linearGradient id="paint0_linear" x1="2.6084" y1="14.8333" x2="29.6084" y2="8.33333" gradientUnits="userSpaceOnUse">
<stop stop-color="#3BF9DE"/>
<stop offset="1" stop-color="#00F68F"/>
</linearGradient>
</defs>
</svg>
