<svg width="22" height="22" viewBox="0 0 22 22" fill="none" xmlns="http://www.w3.org/2000/svg">
<g clip-path="url(#clip0)">
<path d="M4.38221 19.6873C1.95946 17.2316 2.24683 13.2042 5.15771 8.79046C5.68708 7.98746 6.23571 7.25871 6.86683 6.51483L7.39208 5.89746L7.44433 6.44883C7.52408 7.31233 7.64096 7.78533 7.90633 8.32571C8.07271 8.66533 8.34633 9.02971 8.46596 9.13558C8.55671 9.21671 8.51408 9.26346 8.97333 9.02971C11.997 7.3797 12.3091 4.68608 12.1386 2.37058C12.08 1.69361 11.9477 1.02506 11.744 0.37683C11.6725 0.16233 11.6312 -0.00679467 11.6532 8.03297e-05C11.6752 0.00695533 12.052 0.36308 12.4906 0.79208C16.6843 4.88546 18.9531 9.17133 19.2473 13.5576C19.3395 18.5846 16.474 21.2645 12.3036 21.8337C8.74508 22.3823 6.28658 21.5546 4.38221 19.6873Z" fill="url(#paint0_linear)"/>
</g>
<defs>
<linearGradient id="paint0_linear" x1="10.9997" y1="-0.00012207" x2="10.9997" y2="22.0005" gradientUnits="userSpaceOnUse">
<stop stop-color="#FF0068"/>
<stop offset="1" stop-color="#FF643B"/>
</linearGradient>
<clipPath id="clip0">
<rect width="22" height="22" fill="white"/>
</clipPath>
</defs>
</svg>
