<svg width="38" height="38" viewBox="0 0 38 38" fill="none" xmlns="http://www.w3.org/2000/svg">
<path d="M27.8033 33.25C27.5501 33.251 27.3004 33.1913 27.075 33.0758L19 28.8483L10.925 33.0758C10.6628 33.2137 10.3672 33.2753 10.0717 33.2535C9.77626 33.2317 9.49285 33.1275 9.25368 32.9526C9.01452 32.7778 8.82921 32.5394 8.71881 32.2645C8.60841 31.9896 8.57736 31.6892 8.62917 31.3975L10.2125 22.4833L3.68917 16.15C3.48565 15.9469 3.34127 15.6922 3.27153 15.4133C3.2018 15.1343 3.20934 14.8417 3.29334 14.5667C3.38511 14.2853 3.55392 14.0352 3.78061 13.8449C4.0073 13.6546 4.2828 13.5317 4.57584 13.49L13.6008 12.1758L17.575 4.05333C17.7047 3.78563 17.9071 3.55987 18.1591 3.40191C18.4111 3.24394 18.7026 3.16016 19 3.16016C19.2974 3.16016 19.5889 3.24394 19.8409 3.40191C20.0929 3.55987 20.2954 3.78563 20.425 4.05333L24.4467 12.16L33.4717 13.4742C33.7647 13.5158 34.0402 13.6388 34.2669 13.8291C34.4936 14.0194 34.6624 14.2694 34.7542 14.5508C34.8382 14.8258 34.8457 15.1185 34.776 15.3974C34.7062 15.6764 34.5619 15.9311 34.3583 16.1342L27.835 22.4675L29.4183 31.3817C29.4749 31.6785 29.4453 31.9853 29.333 32.2659C29.2208 32.5464 29.0307 32.789 28.785 32.965C28.4983 33.1659 28.1531 33.2661 27.8033 33.25Z" fill="url(#paint0_linear)"/>
<defs>
<linearGradient id="paint0_linear" x1="25" y1="12.5" x2="9.50001" y2="33" gradientUnits="userSpaceOnUse">
<stop stop-color="#3E8EFF"/>
<stop offset="1" stop-color="#00C1FF"/>
</linearGradient>
</defs>
</svg>
